<svg xmlns="http://www.w3.org/2000/svg" viewBox="0 0 702.24 813.13"><defs><style>.cls-1{fill:#0b41e3;}.cls-2{fill:#5ce3b1;}</style></defs><g id="图层_2" data-name="图层 2"><g id="图层_1-2" data-name="图层 1"><path class="cls-1" d="M142.8,745.7a22.21,22.21,0,0,0-11.37,2.84,24,24,0,0,0-8.24,8.18V747h-21v59.52h21V781q0-8.34,3.66-12.7t11-4.35a20,20,0,0,1,9.05,2.09V745.93a12.35,12.35,0,0,0-2.26-.23Z"/><path class="cls-1" d="M211.48,753.59A27.59,27.59,0,0,0,201.27,747a38.41,38.41,0,0,0-13.58-2.26A39.21,39.21,0,0,0,174,747a29.41,29.41,0,0,0-10.39,6.44A28.22,28.22,0,0,0,157,763.62a36.72,36.72,0,0,0-2.32,13.4,33.09,33.09,0,0,0,2.44,13,28.55,28.55,0,0,0,6.9,10,30.74,30.74,0,0,0,10.73,6.44,40.37,40.37,0,0,0,13.81,2.26q24.59,0,30.74-20.42H199a11.39,11.39,0,0,1-10.33,5.57q-12.76,0-12.76-13.57h44.2v-2.2a41.52,41.52,0,0,0-2.2-14A28.52,28.52,0,0,0,211.48,753.59Zm-35,14.5a11.57,11.57,0,0,1,3.89-7.2,13.31,13.31,0,0,1,15.83.12,12.65,12.65,0,0,1,4.3,7.08Z"/><rect class="cls-1" x="224.82" y="766.7" width="33.3" height="17.52"/><path class="cls-1" d="M297.67,719l-33.29,87.48h24.24l5.23-15.2h32.48l5.22,15.2H355.8L322.5,719Zm2.21,55,10.21-29.12L320.3,774Z"/><polygon class="cls-1" points="390.83 777.49 376.68 746.97 353.01 746.97 383.64 806.49 397.68 806.49 428.65 746.97 405.22 746.97 390.83 777.49"/><path class="cls-1" d="M478.89,752.89a24.24,24.24,0,0,0-18.45-7.77,28.66,28.66,0,0,0-12.06,2.49,29.09,29.09,0,0,0-9.4,6.79,31.23,31.23,0,0,0-6.15,10,33.54,33.54,0,0,0-2.2,12.13,34.43,34.43,0,0,0,2.26,12.64,30.75,30.75,0,0,0,6.32,10.1,28.91,28.91,0,0,0,9.52,6.67,29.61,29.61,0,0,0,11.95,2.37q11.47,0,18.21-8.46v6.61H500V747H478.89ZM478.48,782a14.82,14.82,0,0,1-2.9,4.29,12.66,12.66,0,0,1-4.29,2.9,13.45,13.45,0,0,1-5.28,1,13.74,13.74,0,0,1-5.39-1,12.61,12.61,0,0,1-4.3-2.9,13.86,13.86,0,0,1-3.88-9.74,12.84,12.84,0,0,1,1-5.17,14.62,14.62,0,0,1,2.84-4.23,12.75,12.75,0,0,1,4.3-2.9,13.74,13.74,0,0,1,5.39-1,13.45,13.45,0,0,1,5.28,1,12.81,12.81,0,0,1,4.29,2.9,14.71,14.71,0,0,1,2.9,4.35,12.82,12.82,0,0,1,1.11,5.28A12.41,12.41,0,0,1,478.48,782Z"/><polygon class="cls-1" points="537.71 729.11 516.71 729.11 516.71 746.97 509.75 746.97 509.75 764.49 516.71 764.49 516.71 806.49 537.71 806.49 537.71 764.49 549.66 764.49 549.66 746.97 537.71 746.97 537.71 729.11"/><path class="cls-1" d="M604.65,752.89a24.26,24.26,0,0,0-18.45-7.77,28.74,28.74,0,0,0-12.07,2.49,29.16,29.16,0,0,0-9.39,6.79,31.23,31.23,0,0,0-6.15,10,33.55,33.55,0,0,0-2.21,12.13,34.43,34.43,0,0,0,2.27,12.64A30.59,30.59,0,0,0,565,799.3a29,29,0,0,0,9.51,6.67,29.68,29.68,0,0,0,11.95,2.37q11.49,0,18.22-8.46v6.61h21.11V747H604.65ZM604.24,782a15,15,0,0,1-2.9,4.29,12.66,12.66,0,0,1-4.29,2.9,13.49,13.49,0,0,1-5.28,1,13.79,13.79,0,0,1-5.4-1,12.66,12.66,0,0,1-4.29-2.9,13.86,13.86,0,0,1-3.88-9.74,12.67,12.67,0,0,1,1-5.17,14.42,14.42,0,0,1,2.84-4.23,12.81,12.81,0,0,1,4.29-2.9,13.79,13.79,0,0,1,5.4-1,13.49,13.49,0,0,1,5.28,1,12.81,12.81,0,0,1,4.29,2.9,14.91,14.91,0,0,1,2.9,4.35,13,13,0,0,1,1.1,5.28A12.56,12.56,0,0,1,604.24,782Z"/><path class="cls-1" d="M682.43,745.7h-1.79a22.19,22.19,0,0,0-11.37,2.84,24,24,0,0,0-8.24,8.18V747H640v59.52h21V781q0-8.34,3.65-12.7t11-4.35A20,20,0,0,1,684.7,766V745.93A12.45,12.45,0,0,0,682.43,745.7Z"/><path class="cls-2" d="M54.31,705.83a36.76,36.76,0,0,0-36.76,36.76q0,1,.06,2a2.78,2.78,0,0,0-.06.58v66.64a1.28,1.28,0,0,0,1.28,1.28h0A20.19,20.19,0,0,0,39,793V776a36.76,36.76,0,1,0,15.34-70.17Zm0,52.11a15.35,15.35,0,1,1,15.35-15.35A15.35,15.35,0,0,1,54.31,757.94Z"/><path class="cls-2" d="M374.55,312.08a13.92,13.92,0,0,0-7.64,9c-.08.28-.14.57-.21.86,0,.12-.05.25-.08.38s-.08.52-.11.78l-.06.49c0,.24,0,.48,0,.73s0,.37,0,.56,0,.46,0,.68,0,.43,0,.64,0,.42.07.63.08.47.13.71.07.38.12.56.15.55.23.82.08.3.14.45a11.32,11.32,0,0,0,.49,1.26,12.53,12.53,0,0,0,.81,1.49l.08.13a15.27,15.27,0,0,0,.93,1.3,14,14,0,0,0,12,5.19l.42,0c.23,0,.46-.06.7-.1l.6-.1.59-.13.76-.22.46-.14a11.5,11.5,0,0,0,1.22-.49,14,14,0,0,0-.93-25.79,13.76,13.76,0,0,0-4.88-.89c-.42,0-.83,0-1.24.06l-.55.07L378,311a14.43,14.43,0,0,0-1.58.36h0A14.12,14.12,0,0,0,374.55,312.08Z"/><path class="cls-1" d="M177.15,427A317.15,317.15,0,0,0,214,457.33a24.4,24.4,0,0,1,5.18-3.24c.29-.13.58-.23.87-.34a424,424,0,0,1,3.1-90.57,23.93,23.93,0,0,1-13.48-18.11C172.54,340,131.8,328.46,92.46,305.3,115.14,354.06,143.54,394.92,177.15,427Z"/><path class="cls-2" d="M83.29,293.79c.25-.16.49-.31.72-.48l.45-.34.57-.46.45-.41.47-.47.44-.48c.14-.15.26-.31.39-.47s.29-.36.42-.54.21-.3.31-.46.27-.4.39-.61.15-.28.23-.41.26-.47.37-.71a13.91,13.91,0,0,0-6.11-18.36,13,13,0,0,0-1.61-.73,13.88,13.88,0,0,0-10.69.38,12.69,12.69,0,0,0-1.41.75l-.08.05c-.43.27-.85.56-1.25.87a13.85,13.85,0,0,0-3.59,4.14c-.17.31-.34.63-.5.95s-.32.7-.45,1.06a13.86,13.86,0,0,0,.38,10.69,14.09,14.09,0,0,0,.8,1.49c.08.13.17.25.25.37.24.37.5.73.77,1.07l.23.28a13.55,13.55,0,0,0,2.49,2.3h0a14,14,0,0,0,6.66,2.56h0a14,14,0,0,0,3.6-.07l.22,0a14.43,14.43,0,0,0,1.45-.32l.4-.12a13.09,13.09,0,0,0,1.64-.62,10.46,10.46,0,0,0,1.2-.62Z"/><path class="cls-2" d="M221.73,333.86q-.4.63-.75,1.29l0,.06a13.85,13.85,0,0,0-.62,1.42,11.5,11.5,0,0,0-.4,1.26c0,.17-.08.34-.12.51s-.12.5-.16.75-.06.45-.09.67-.05.39-.07.59,0,.52,0,.78,0,.31,0,.47,0,.58,0,.87l0,.36c0,.32.08.63.13.94,0,.09,0,.18.05.26.07.34.14.68.23,1,0,.05,0,.1,0,.15.11.36.22.73.35,1.09s.25.65.39,1a14,14,0,0,0,4.16,5.26h0c.12.09.24.16.35.25s.44.31.67.45l.42.26c.23.13.47.27.71.39l.37.19c.38.18.76.35,1.15.49s.8.27,1.2.39l.46.11.74.15.6.1.57.06.73.06h.31a14.27,14.27,0,0,0,4.15-.55,13.75,13.75,0,0,0,8.4-6.77l.39-.77q.22-.48.42-1a13.88,13.88,0,0,0-.38-10.68l-.1-.2h0a13.93,13.93,0,0,0-3.66-4.72q-.44-.36-.9-.69l-.18-.12c-.26-.18-.53-.34-.8-.5l-.21-.13c-.29-.16-.58-.31-.88-.45l-.14-.07c-.36-.16-.72-.31-1.09-.45h0c-.34-.13-.69-.23-1.05-.33l-.3-.08-.79-.17-.37-.07c-.26,0-.52-.08-.79-.1l-.34,0c-.37,0-.75,0-1.12,0a13.38,13.38,0,0,0-1.67.11h-.06A15.1,15.1,0,0,0,230,328a14.84,14.84,0,0,0-2.43.83A14,14,0,0,0,221.73,333.86Z"/><path class="cls-1" d="M406.62,496.94C391.06,444.12,381.48,394.53,378,348.65a24.32,24.32,0,0,1-6-1.4,23.82,23.82,0,0,1-12.69-11.07,425.83,425.83,0,0,1-77.79,11.62c-6.9.38-14.19.61-21.8.61l-3.34,0a23.91,23.91,0,0,1-13,14.94,23.58,23.58,0,0,1-7.74,2.06,411.88,411.88,0,0,0-3,86.8,24.53,24.53,0,0,1,4.92,1.26,23.93,23.93,0,0,1,15.15,27A301.15,301.15,0,0,0,289,495.72a306.19,306.19,0,0,0,107.16,16.75,24.66,24.66,0,0,1,1.05-3.8A23.8,23.8,0,0,1,406.62,496.94Z"/><path class="cls-2" d="M241.89,470.1a13.91,13.91,0,0,0-7.83-7.29l-.6-.19c-.34-.11-.69-.21-1-.29l-.07,0c-.32-.08-.64-.14-1-.2l-.32,0-.76-.1c-.38,0-.75-.05-1.13-.05a14,14,0,0,0-5.8,1.27,13.87,13.87,0,0,0-7.28,7.83c-.16.42-.29.84-.41,1.27s-.2.85-.28,1.28h0a13.93,13.93,0,0,0,8.41,15.21h0l.48.21a13.86,13.86,0,0,0,10.69-.38,13,13,0,0,0,1.47-.79h0a13.52,13.52,0,0,0,1.32-.92,14.11,14.11,0,0,0,2.65-2.7l.05-.09a12.06,12.06,0,0,0,.87-1.36l.2-.36a14.65,14.65,0,0,0,.73-1.61q.24-.64.42-1.32c.06-.23.1-.46.15-.69s.1-.43.13-.65a13.67,13.67,0,0,0,.18-2.71h0A14.18,14.18,0,0,0,241.89,470.1Z"/><path class="cls-2" d="M412.67,504.94q-.44.26-.84.54l-.22.14c-.34.24-.66.49-1,.75h0a12.34,12.34,0,0,0-.92.85h0a13.94,13.94,0,0,0-2.78,15.62c.15.33.33.65.5,1s.31.53.47.79a13.85,13.85,0,0,0,6.86,5.54l.88.28c.39.11.78.21,1.17.29l.09,0a10.45,10.45,0,0,0,1.12.18l.17,0c.35,0,.7.06,1.05.07h.28l1,0,.4,0c.28,0,.57-.05.85-.09l.53-.1.72-.15.71-.2.53-.16a13.19,13.19,0,0,0,1.23-.5,14,14,0,0,0-.92-25.8,14.75,14.75,0,0,0-2.4-.66h0c-.41-.07-.81-.13-1.22-.16h0c-.42,0-.83-.05-1.25-.05a13.84,13.84,0,0,0-5.79,1.27A12.9,12.9,0,0,0,412.67,504.94Z"/><path class="cls-2" d="M543.22,47.25v0c-.06-.62-.15-1.23-.27-1.84,0-.17-.07-.34-.11-.5-.1-.45-.22-.89-.35-1.34-.07-.23-.15-.47-.23-.71s-.28-.76-.44-1.13-.22-.52-.34-.78-.3-.59-.46-.88-.28-.52-.43-.77-.35-.54-.53-.8-.34-.5-.52-.74-.38-.47-.57-.7-.4-.48-.61-.71l-.6-.61c-.23-.22-.46-.45-.7-.66l-.63-.52-.77-.61c-.22-.16-.45-.31-.68-.46s-.54-.35-.81-.51-.5-.28-.75-.41-.54-.29-.82-.42l-.82-.35-.81-.32c-.3-.11-.6-.2-.9-.29l-.79-.23c-.32-.08-.64-.14-1-.21l-.79-.14-1-.12c-.27,0-.54-.06-.81-.07s-.65,0-1,0h-.85c-.31,0-.62,0-.93.07l-.9.1c-.3,0-.59.1-.88.16s-.64.12-1,.2l-.84.24q-.48.14-1,.3l-.87.35c-.29.12-.59.25-.88.39s-.49.24-.73.37l-.75.42c-.3.18-.59.36-.87.55l-.42.3c-.36.26-.71.52-1,.8l0,0c-.4.34-.79.69-1.16,1.05h0a18.65,18.65,0,0,0-5.39,10.94c0,.06,0,.12,0,.18-.06.57-.11,1.13-.12,1.7,0,.18,0,.35,0,.53,0,.46,0,.91.05,1.37,0,.24,0,.47.08.7,0,.4.1.8.17,1.2s.11.54.17.8.19.74.3,1.1.17.56.26.83.28.76.44,1.13.2.48.31.72.31.6.47.89.25.48.39.71.37.58.56.86l.45.66c.2.26.41.51.62.77s.36.43.55.64.42.44.63.65.43.43.66.64.43.36.64.54.51.42.78.61.43.3.65.45.57.38.87.56.47.26.7.39l.91.46c.27.13.55.24.82.35s.57.24.86.34.61.2.91.29l.79.23c.34.08.67.15,1,.21l.73.14c.35,0,.71.09,1.07.12l.68.06c.38,0,.75,0,1.12,0h.64c.39,0,.78,0,1.16-.09l.59-.07a12,12,0,0,0,1.2-.21L529,67c.42-.1.84-.21,1.25-.34l.43-.14c.45-.16.89-.32,1.33-.51A18.51,18.51,0,0,0,543.3,49.31h0A20.06,20.06,0,0,0,543.22,47.25Z"/><path class="cls-2" d="M268.68,627.4c-.46.2-.92.4-1.35.63l-.1.06a16.52,16.52,0,0,0-2.73,1.84h0a16.35,16.35,0,0,0-3.2,21.65h0a15,15,0,0,0,1.08,1.44l.22.26c.32.37.65.72,1,1.06l.35.32c.34.31.69.6,1.06.88l.38.3a17.72,17.72,0,0,0,1.55,1,16.4,16.4,0,0,0,23.83-18.72c-.14-.48-.3-1-.47-1.41-.11-.28-.23-.55-.36-.82s-.13-.31-.2-.46c-.17-.36-.36-.71-.56-1l-.07-.13c-.23-.38-.46-.75-.72-1.11h0a16.21,16.21,0,0,0-5.38-4.89,16.48,16.48,0,0,0-6.26-2h0a16,16,0,0,0-3.1,0l-.15,0c-.46,0-.93.1-1.4.18s-1,.21-1.55.35a16.82,16.82,0,0,0-1.65.56Z"/><path class="cls-2" d="M526.31,666.85c0,.16,0,.31,0,.47,0,.42.08.83.13,1.25,0,.15,0,.31.06.46a14.82,14.82,0,0,0,.38,1.7A16.4,16.4,0,1,0,550.72,652c-.38-.21-.77-.4-1.16-.58s-.69-.3-1-.43a16.29,16.29,0,0,0-19.67,6.54h0A15.88,15.88,0,0,0,528,659l0,0c-.23.48-.45,1-.64,1.47l0,.1c-.18.48-.33,1-.46,1.44l-.06.2c-.11.45-.21.91-.29,1.38,0,.1,0,.2,0,.3-.07.43-.11.86-.14,1.3l0,.4C526.28,666,526.29,666.44,526.31,666.85Z"/><path class="cls-2" d="M639.76,282a108.82,108.82,0,1,0-217.64,0V493.21a23.88,23.88,0,0,1,19.33,13.87,25,25,0,0,1,1.1,2.95,53,53,0,0,0,43-51.85V380.86A108.86,108.86,0,0,0,639.76,282Zm-154.24,0a45.42,45.42,0,1,1,45.42,45.42A45.42,45.42,0,0,1,485.52,282Z"/><path class="cls-1" d="M411.26,539.51A23.84,23.84,0,0,1,397.83,527c-.28-.61-.51-1.22-.73-1.84-2.71.09-5.63.14-8.74.14a319.11,319.11,0,0,1-103.54-17.64,313.76,313.76,0,0,1-37.68-15.9,23.8,23.8,0,0,1-8,6c-.36.16-.72.28-1.08.42,1.67,10.06,3.56,19.57,5.56,28.4a537.59,537.59,0,0,0,28.75,89.73,26.33,26.33,0,0,1,25.33,12.84c72.39-32.1,101.78-67.32,113.66-89.56Z"/><path class="cls-1" d="M694.57,244.48c-9.91-37.75-29.38-74.72-57.89-109.87-29.76-36.71-62.76-63.47-84.2-78.88a30.74,30.74,0,0,1-1,3.19,28.32,28.32,0,0,1-10.36,13.4c20.54,14.85,52.29,40.62,80.34,75.33,26.59,32.9,44.68,67.29,53.8,102.22,11.31,43.34,8.75,87.85-7.61,132.3-15.19,41.26-40.28,64.81-64.55,87.58-38.26,35.91-77.73,73-74.88,174.43a26.49,26.49,0,0,1,19.9-3.71c-2-89.81,31-120.75,68.68-156.12,26-24.37,52.81-49.56,69.63-95.27C704.3,340.61,707,292,694.57,244.48Z"/><path class="cls-1" d="M65.93,260.14a23.65,23.65,0,0,1,8.38-2.09c32-57,74-103.74,125-139.09,44-30.48,94.77-52.58,150.86-65.67a530.76,530.76,0,0,1,147.31-13,28.8,28.8,0,0,1,4.36-8.48C472.15,20.44,438.39,11.59,399.4,5c-64-10.31-157.92-9.57-241.68,52.51C94.64,103.94,63,164.06,58.27,246.67c-.51,5.69.52,11.3,2.07,17A24,24,0,0,1,65.93,260.14Z"/><path class="cls-1" d="M496.44,53A523.66,523.66,0,0,0,352.63,65.71C298.17,78.48,248.94,99.94,206.3,129.52,158,163,118,207.19,87.28,260.88a23.89,23.89,0,0,1,11.08,29.45A25.83,25.83,0,0,1,97,293.26a290.86,290.86,0,0,0,83.92,33.81q14.79,3.45,30.23,5.53a23.94,23.94,0,0,1,21.6-15.06c2.87-10.29,6.25-20.61,10.22-30.91,39.06-101.51,124.29-179.91,253.5-233.32C496.47,53.2,496.45,53.09,496.44,53Z"/><path class="cls-1" d="M249.55,649.66a26.45,26.45,0,0,1,10.84-29.14,546.79,546.79,0,0,1-29.11-91.19c-2.09-9.24-4.07-19.2-5.81-29.75a24.13,24.13,0,0,1-4.67-1.21,23.94,23.94,0,0,1-14.12-30.74,330.81,330.81,0,0,1-38.27-31.44c-35.88-34.29-65.93-78.09-89.64-130.44a24.46,24.46,0,0,1-2.84.17,23.93,23.93,0,0,1-8.76-1.67C66,310.44,63.23,316.92,58,323.93c-1.36,1.7-14.61,18.27-27.76,36C4.25,395,.75,404.39.28,409.66a30.44,30.44,0,0,0,4.79,20.82c6,9.2,16.52,15.6,31.34,19.06.23,1.37.32,4.45-1.42,10.18l-.19.65-4.72,29.28v.83c0,2,.77,11.2,12.88,20.12-3.73,5.77-7.87,17.83,1.44,37.87l.76,1.4c3.93,6.92,7.65,13.46,1.74,26l-.36.88c-2.44,6.77-13.48,40.6,3.08,55.34,2.21,2.76,7.31,7.86,17.76,12.93,16.51,8,39.42,12.61,68.08,13.71,12.25.47,23.72.71,34.59.71,30.56,0,56.32-1.91,80.9-6A25.36,25.36,0,0,1,249.55,649.66Z"/><path class="cls-1" d="M463,82.23c-104.5,51.06-174.4,121.14-208.19,208.94-3.77,9.8-7,19.61-9.73,29.41a23.77,23.77,0,0,1,10.16,11,23.41,23.41,0,0,1,1.44,4.17c7.83.07,15.74-.09,23.72-.53a414.46,414.46,0,0,0,76-11.39,23.85,23.85,0,0,1,20.09-22.67c.12-6.9.38-13.71.82-20.41,3.65-55.83,18.06-104.82,42.82-145.61A247.07,247.07,0,0,1,463,82.23Z"/></g></g></svg>