<svg xmlns="http://www.w3.org/2000/svg" viewBox="0 0 900.42 249.37"><defs><style>.cls-1{fill:#0b41e3;}.cls-2{fill:#5ce3b1;}</style></defs><g id="图层_2" data-name="图层 2"><g id="图层_1-2" data-name="图层 1"><path class="cls-1" d="M57.56,198.57a64.87,64.87,0,0,1,62.14-64.73L151.38,0H59L0,249.37H82.2A64.72,64.72,0,0,1,57.56,198.57Z"/><polygon class="cls-1" points="571.09 249.37 511.97 0 419.61 0 458.43 163.75 439.64 163.75 445.97 190.45 464.76 190.45 478.73 249.37 571.09 249.37"/><path class="cls-1" d="M854.24,0H808.06L740,81,671.84,0H579.48V249.37h92.36V54.93l45,53.55,1.31,1.56a22.51,22.51,0,0,1,43.56,0l1.31-1.56,45-53.55V249.37h92.36V0Z"/><circle class="cls-2" cx="122.36" cy="198.57" r="50.8" transform="translate(-93.25 287.54) rotate(-80.78)"/><path class="cls-1" d="M234.72,198.57a64.87,64.87,0,0,1,62.14-64.73L328.54,0H236.18l-59,249.37h82.2A64.72,64.72,0,0,1,234.72,198.57Z"/><circle class="cls-2" cx="299.52" cy="198.57" r="50.8" transform="translate(55.53 462.41) rotate(-80.78)"/><polygon class="cls-2" points="357.31 249.37 449.67 249.37 403.49 54.6 357.31 249.37"/><path class="cls-2" d="M740,99.22a16.5,16.5,0,0,0-8.65,30.57v89.83a8.65,8.65,0,0,0,8.65,8.65h0a8.65,8.65,0,0,0,8.65-8.65V129.79A16.5,16.5,0,0,0,740,99.22Z"/><path class="cls-2" d="M713.6,127.79a8.65,8.65,0,0,0-8.65,8.65V196a8.65,8.65,0,1,0,17.3,0V136.44A8.65,8.65,0,0,0,713.6,127.79Z"/><path class="cls-2" d="M687.25,144.58a8.66,8.66,0,0,0-8.66,8.66V178a8.66,8.66,0,1,0,17.31,0V153.24A8.66,8.66,0,0,0,687.25,144.58Z"/><path class="cls-2" d="M766.3,143.32a8.65,8.65,0,0,0-8.65,8.65v39a8.65,8.65,0,0,0,17.3,0V152A8.65,8.65,0,0,0,766.3,143.32Z"/><path class="cls-2" d="M792.65,136.65A8.65,8.65,0,0,0,784,145.3V196a8.66,8.66,0,0,0,17.31,0V145.3A8.66,8.66,0,0,0,792.65,136.65Z"/></g></g></svg>