<svg xmlns="http://www.w3.org/2000/svg" viewBox="0 0 906.11 433.36"><defs><style>.cls-1{fill:#5ce3b1;}.cls-2{fill:#fff;}</style></defs><g id="图层_2" data-name="图层 2"><g id="图层_1-2" data-name="图层 1"><path class="cls-1" d="M7.81,351.28H41.34a61.17,61.17,0,0,0-4.07-7.75l10.86-1.75q2.22,5.14,3.68,9.5H85.05v9.3H70.41a79.7,79.7,0,0,1-4.84,12.5H89.51v9.4H3.26v-9.4H26.81q-2.32-7.65-4.27-12.5H7.81ZM78.17,388v44.58H68V428.9H25.16v3.69H15V388Zm-53,16.28H68v-7.56H25.16Zm0,15.89H68v-7.36H25.16Zm7.94-59.6q1.65,5,3.59,12.5h18.9a65,65,0,0,0,4.75-12.5Z"/><path class="cls-1" d="M133.79,390.92q-3.19,13.65-8.62,21.12l-7.46-6.49q5.13-7.17,7.36-18.12Zm3.3-47.88H147v10.27h11.44v9.5H147v7.95h12.7v9.88H118v-9.88h4.65V351.09h9.69v19.67h4.75Zm24.71,46.13q-6.41,32.85-37.6,43.12l-5.82-9.2q15.51-4.65,24.13-14.34h-6V383.07h9.69V404A48.29,48.29,0,0,0,153,387.14Zm16.67-12.31h9.88v17q-.58,15.8-6.88,25.49-6.19,8.82-19.67,13.57l-5.53-8.82q12.79-4.65,17.25-11.24,4.36-7.27,4.95-19Zm-17.93-31h46.32v9.5H188.45q-.19,2.72-.78,7.75h16.86v47.49h-9.88V372.41h-22v38.18h-9.79V363.1h14.35q.57-4.85.77-7.75H160.54Zm31.49,64a136.78,136.78,0,0,1,16.09,15.6L200.56,433a96.31,96.31,0,0,0-15.31-16.67Z"/><path class="cls-2" d="M236,367.17h36.73a146.38,146.38,0,0,0,1.06-15.6v-8.72H284.1v6.4A149.32,149.32,0,0,1,283,367.17h38.86v9.89H285.36q10.45,30.33,38.76,46.9l-6.4,8.33a90.69,90.69,0,0,1-38.47-46.8q-9.88,32.37-39,47.68l-6.49-8.53q29.37-14.25,37.21-47.58H236Z"/><path class="cls-2" d="M372.67,432.2h-9.5V388.88a119.11,119.11,0,0,1-9.4,21l-4.36-11.24A85.62,85.62,0,0,0,363,370.18H352V361h11.14V342.85h9.5V361h8.43v9.21h-8.43v5.62q5.13,6.19,11.14,14.53l-5.33,7.95q-2.72-5.52-5.81-10.95Zm13.76-65.41h46.9V398H414.15l-.59,5.33h26.07v9.11H417.54q8.13,7.85,22.77,12.69l-6.88,8.05q-15.8-7-23.84-17.06-5.13,10.08-22.77,17l-6.49-7.95q15.1-5.24,20.44-12.69H379.65v-9.11h24.81c.25-1.23.51-3,.77-5.33h-18.8Zm-5.81-16.67h13.27v-7h9.5v7h12v-7h9.49v7h14V359h-14v5.72h-9.49V359h-12v5.72h-9.5V359H380.62Zm15,28.68h28.49v-4.17H395.64Zm28.49,11.63v-4.26H395.64v4.26Z"/><path class="cls-2" d="M474,404h32.85v-6.5H517V404h32.17v9.3H517v8h37.5v9.21H468.61v-9.21h38.28v-8H474Zm-2.52-57.76h46.71v8.92h-8.92v11.72h11.05v9.31H509.31v20.25h-9.69V376.19H489.54q-1.74,14-10.56,21.41l-7.66-6.68q6.58-5,8.34-14.73H469v-9.31h11.24V355.16h-8.72ZM490,355.16v11.72h9.59V355.16Zm34-5.72h9.59v33.14H524Zm5,48.26-2.23-9.5q7.27.68,11.82.68c1.88,0,2.81-1.52,2.81-4.55V344.11h9.79v42.54q0,11.06-9.21,11.05Z"/><path class="cls-2" d="M633.84,364.36H644v12.41a74.85,74.85,0,0,1-3.58,19.57h29.84v9.4h-34.2l-1.65,2.62a221.75,221.75,0,0,1,35.37,16.18l-5.72,8.82a190.59,190.59,0,0,0-35.76-17.83q-12.3,11.14-36.53,17.35l-5.53-8.63q27.33-7.17,36.93-17.73a2.81,2.81,0,0,1,.58-.78H585.09v-9.4h44.29a59.85,59.85,0,0,0,4.46-19.57Zm35-12.5v21.32H658.55V361.26H597.11v12.31H586.84V351.86h36.24c-1.23-3.16-2.42-5.91-3.59-8.24l10.76-1.74a95.92,95.92,0,0,1,2.91,10Zm-67.54,25.49A108.85,108.85,0,0,1,620.66,387L615.42,395a88.86,88.86,0,0,0-19.18-10.28Zm5.52-14.44a92.19,92.19,0,0,1,19,9.3l-5.13,8A79.12,79.12,0,0,0,602,370Z"/><path class="cls-2" d="M721,410.1a127.28,127.28,0,0,1-21.42,5.72l-1.26-9.5A143.61,143.61,0,0,0,721,401.09Zm2.13-54.65H700.7v-9.11h32.37l-4.55,39.92h5.42q0,34.41-3.1,39.74t-13,5.33q-2,0-6.5-.39L708.65,422a65.05,65.05,0,0,0,7.07.78q6.21,0,7.56-4,1.37-4.26,1.36-23.64H700.32l4.55-34.6,9.21.49-3.69,25.19H719Zm23.84,18.41a88.64,88.64,0,0,1-9.5,8.53l-5.33-8.14a78.56,78.56,0,0,0,24.52-31.4h8.91q7.08,17.64,24.62,31.11l-5.53,8.43a86.77,86.77,0,0,1-9.88-8.92v5.62H746.93Zm-12,45.93H766a288.84,288.84,0,0,0,8.91-36.43l9.69,2.52a245.11,245.11,0,0,1-9.1,33.91h13.27v9.69H734.91Zm11.24-33.62A221.73,221.73,0,0,1,754,413.5l-8.62,2a206.23,206.23,0,0,0-7.85-26.36ZM771.74,370a73.5,73.5,0,0,1-10.66-17.25A98.57,98.57,0,0,1,750.32,370Zm-10.66,13.18a236,236,0,0,1,6.3,26.26l-8.63,2a223.71,223.71,0,0,0-6.3-25.49Z"/><path class="cls-2" d="M827.46,371.63h-9V350.89h36.34a61,61,0,0,0-4.36-7.07l11.43-1.94q2.24,4.46,4,9h36.54v20.74h-9v4.46H879.59a135.61,135.61,0,0,1,17.35,16.28l-7.46,7.56a73.29,73.29,0,0,0-5.62-7q-11.73,1-18.32,1.36v8.14h29.75v9.4H865.54v8.91h37.31v9.4H818v-9.4h37.31v-8.91H825.71v-9.4h29.56V395q-16.38,1-26.16,1.35l-2.33-8.72a8.79,8.79,0,0,0,2.13-.87q4.46-2,11.82-10.66H827.46ZM892.1,367v-6.59H828.72V367Zm-39.74,9.11a90.74,90.74,0,0,1-9.3,11.24q16.86-.78,33.34-2l-5.82-5.23,4.07-4Z"/><path class="cls-2" d="M22.32,273.63l-6,33.82H36.64L34.78,318H0l7.82-44.34Z"/><path class="cls-2" d="M50.41,287.58q3.78-2.88,15-2.88c7,0,11.15,1.14,12.42,3.43a12.93,12.93,0,0,1,1.51,7.63,1.34,1.34,0,0,0,0,.28,1.23,1.23,0,0,1,0,.27l-3,16.85a5.57,5.57,0,0,0,0,2.16,3.11,3.11,0,0,0,1.21,1.75l-.16.9h-14l.11-3.37A10.81,10.81,0,0,1,59,317.38a24.18,24.18,0,0,1-6.12,1.34c-.32,0-.63,0-.93,0s-.61,0-.93,0h-.69a16.33,16.33,0,0,1-5.47-1.17,6,6,0,0,1-3.48-3.43c-.06-.19-.12-.38-.17-.59s-.13-.44-.22-.72c-.09-.55-.16-1.18-.22-1.89a8.76,8.76,0,0,1,.11-2.16,10.47,10.47,0,0,1,.41-1.55,13.91,13.91,0,0,1,.7-1.62,12,12,0,0,1,1-1.58,12.36,12.36,0,0,1,1.37-1.51A11.12,11.12,0,0,1,48.91,300a37.29,37.29,0,0,1,5.54-1.24c.72-.14,1.42-.25,2.13-.34l2-.28c1-.09,1.9-.22,2.78-.38s1.63-.33,2.26-.51a3.8,3.8,0,0,0,1.32-.69,2.81,2.81,0,0,0,.82-1,.85.85,0,0,1,.08-.24,1.35,1.35,0,0,0,.08-.24.64.64,0,0,0,0-.24.54.54,0,0,1,0-.18,1.76,1.76,0,0,0-.82-1.2A3.81,3.81,0,0,0,63,293a9.48,9.48,0,0,0-3.21.52,3.51,3.51,0,0,0-2.09,2.3l-13-.07A18.27,18.27,0,0,1,50.41,287.58Zm14,16.5a8.21,8.21,0,0,1-1.75.76c-.6.18-1.22.34-1.84.48a1.81,1.81,0,0,0-.52.07l-.54.14a16.94,16.94,0,0,0-3.48,1A3,3,0,0,0,54.38,309a1.78,1.78,0,0,0,.79,1.93,4.29,4.29,0,0,0,2.46.69,4.22,4.22,0,0,0,.52,0,4.41,4.41,0,0,1,.52,0,7.85,7.85,0,0,0,1.46-.45,6.1,6.1,0,0,0,1.21-.65,9.46,9.46,0,0,0,1.26-1.28,6.69,6.69,0,0,0,.85-1.34,7.66,7.66,0,0,0,.51-1.13,5.75,5.75,0,0,0,.29-1.07c0-.09,0-.18,0-.27a.24.24,0,0,0,0-.21s0-.09,0-.13l0-.14a2.64,2.64,0,0,0,0-.38,1.51,1.51,0,0,1,0-.31Z"/><path class="cls-2" d="M102.35,273.15l-2.64,15a12,12,0,0,1,4.35-2.64,15.38,15.38,0,0,1,5.43-1c.32,0,.65,0,1,0a9.84,9.84,0,0,1,1,.1,11.22,11.22,0,0,1,7.48,4.54q3.06,3.91,1.56,12.44t-6.25,12.61a17.74,17.74,0,0,1-9.61,4.44l-.73,0-.73,0a12.82,12.82,0,0,1-5.56-1.2A7.42,7.42,0,0,1,94,314.19L93.35,318h-12l7.9-44.82ZM99,297a10.2,10.2,0,0,0-2.4,5,8,8,0,0,0,.6,5.15,4.12,4.12,0,0,0,4,2.21,5,5,0,0,0,4.23-2.21,12,12,0,0,0,2.16-4.81.25.25,0,0,1,0-.1v-.1a2.74,2.74,0,0,0,0-.28c0-.09,0-.18,0-.27a9.1,9.1,0,0,0-.58-4.68A3.2,3.2,0,0,0,104,294.8h-.21A6.08,6.08,0,0,0,99,297Z"/><path class="cls-2" d="M178.07,284.63c.45,0,.89.08,1.32.1s.85.06,1.25.1a17.55,17.55,0,0,1,10.11,4.51q4.29,3.89,3.16,12.27l-.16.89q-1.49,8.46-7.42,12.44a24.54,24.54,0,0,1-12.25,4.4,4.76,4.76,0,0,1-.84.07h-2a18.84,18.84,0,0,1-11.37-4.36q-4.81-4-3.16-13.44,1.29-7.29,5.83-11a25.07,25.07,0,0,1,9.45-5.05,27.47,27.47,0,0,1,3.13-.62,23.53,23.53,0,0,1,2.93-.2Zm-5.56,11a12.82,12.82,0,0,0-2.38,3.95c-.1.33-.19.65-.27,1s-.15.64-.2,1a10.87,10.87,0,0,0-.18,1.41,8.15,8.15,0,0,0,0,1.48,9.08,9.08,0,0,0,1.11,4.05,3.57,3.57,0,0,0,3.42,1.86,4.78,4.78,0,0,0,3.9-1.86,13.2,13.2,0,0,0,2.23-4.05c.17-.51.32-1,.43-1.48s.2-.95.28-1.41.1-.64.14-1,.05-.64.06-1a8,8,0,0,0-.95-3.95,3.8,3.8,0,0,0-3.67-1.82A5,5,0,0,0,172.51,295.66Z"/><path class="cls-2" d="M203.33,285.59c0-.09,0-.19.06-.31l.06-.38a.64.64,0,0,1,0-.31c0-.11,0-.24.07-.37a15.55,15.55,0,0,1,4.28-8.7q3.32-3.27,9.1-3.26l7.16-.07-1.52,8.59a13.5,13.5,0,0,0-4.29.55,2.37,2.37,0,0,0-1.37,1.92l-.41,2.34h5.23l-1.37,7.77h-5.23L210.75,318H197.62L202,293.36H197.7l1.37-7.77Z"/><path class="cls-2" d="M275.21,273.63l-6,33.82h20.28L287.67,318H252.89l7.82-44.34Z"/><path class="cls-2" d="M303.3,287.58q3.78-2.88,15-2.88,10.52,0,12.42,3.43a12.93,12.93,0,0,1,1.51,7.63.89.89,0,0,0,0,.28,1.23,1.23,0,0,1,0,.27l-3,16.85a5.21,5.21,0,0,0,0,2.16,3.11,3.11,0,0,0,1.21,1.75l-.16.9h-14l.11-3.37a10.81,10.81,0,0,1-4.51,2.78,24.27,24.27,0,0,1-6.12,1.34c-.32,0-.63,0-.93,0s-.62,0-.94,0h-.68a16.33,16.33,0,0,1-5.47-1.17,6,6,0,0,1-3.48-3.43c-.06-.19-.12-.38-.17-.59s-.13-.44-.22-.72c-.09-.55-.16-1.18-.22-1.89a8.3,8.3,0,0,1,.11-2.16,9.37,9.37,0,0,1,.41-1.55,12.39,12.39,0,0,1,.7-1.62,12,12,0,0,1,1-1.58,12.36,12.36,0,0,1,1.37-1.51A11.12,11.12,0,0,1,301.8,300a37.29,37.29,0,0,1,5.54-1.24c.71-.14,1.42-.25,2.13-.34l2-.28c1-.09,1.9-.22,2.78-.38s1.63-.33,2.26-.51a3.8,3.8,0,0,0,1.32-.69,2.81,2.81,0,0,0,.82-1,.85.85,0,0,1,.08-.24,1.35,1.35,0,0,0,.08-.24,1,1,0,0,0,0-.24.54.54,0,0,1,0-.18,1.76,1.76,0,0,0-.82-1.2,3.81,3.81,0,0,0-2.18-.52,9.48,9.48,0,0,0-3.21.52,3.54,3.54,0,0,0-2.1,2.3l-13-.07A18.27,18.27,0,0,1,303.3,287.58Zm14,16.5a8.21,8.21,0,0,1-1.75.76c-.6.18-1.22.34-1.84.48a1.77,1.77,0,0,0-.52.07l-.54.14a16.94,16.94,0,0,0-3.48,1,3,3,0,0,0-1.87,2.44,1.78,1.78,0,0,0,.79,1.93,4.29,4.29,0,0,0,2.46.69,4.22,4.22,0,0,0,.52,0,4.28,4.28,0,0,1,.52,0,7.54,7.54,0,0,0,1.45-.45,6.21,6.21,0,0,0,1.22-.65,9.36,9.36,0,0,0,1.25-1.28,6.33,6.33,0,0,0,.86-1.34,7.66,7.66,0,0,0,.51-1.13,6.65,6.65,0,0,0,.29-1.07c0-.09,0-.18.05-.27a.28.28,0,0,0,0-.21s0-.09,0-.13l0-.14a2.64,2.64,0,0,0,0-.38,1,1,0,0,1,0-.31Z"/><path class="cls-2" d="M352.36,285.59,351.23,292a14.75,14.75,0,0,1,4.42-5.19,11.54,11.54,0,0,1,6.47-1.61l1.94-.07-2.3,13.06a2.76,2.76,0,0,1-.67.07,3.23,3.23,0,0,1-.71-.07H359a10.28,10.28,0,0,0-5.55,1.44q-2.32,1.45-3.12,6L348.16,318H334.62l5.71-32.38Z"/><path class="cls-2" d="M403,285.59l-5.46,30.93a16.5,16.5,0,0,1-4.57,8.6Q389.24,329,379.41,329q-8.32,0-11.85-2.38t-4.21-5.19a6.62,6.62,0,0,1-.12-1.06c0-.35,0-.68,0-1h13.06a1.93,1.93,0,0,0,1.18,1.51,5.23,5.23,0,0,0,2.45.55l.45,0a3.93,3.93,0,0,1,.45,0,6.61,6.61,0,0,0,2.85-1.3,4.68,4.68,0,0,0,1.7-3l.69-3.91a12.78,12.78,0,0,1-4.12,2.51,16,16,0,0,1-4.61,1,2.09,2.09,0,0,1-.53.07h-.51c-.33,0-.63,0-.93,0s-.59-.06-.91-.11a12.52,12.52,0,0,1-8-4.43q-3.31-3.81-2-11a1.64,1.64,0,0,1,.09-.35,3.11,3.11,0,0,0,.11-.41,1.51,1.51,0,0,1,.1-.38,2.12,2.12,0,0,0,.09-.31q1.65-7.08,5.93-10.65a17.5,17.5,0,0,1,8.72-4.2c.32,0,.66-.08,1-.1l1,0a12.66,12.66,0,0,1,5.34,1.13,7,7,0,0,1,3.5,3.34l.63-3.58Zm-23.09,10.48a10.72,10.72,0,0,0-1.77,4.57,8.94,8.94,0,0,0,.27,4.92,3.19,3.19,0,0,0,3.33,2,4.91,4.91,0,0,0,4-1.76,11.18,11.18,0,0,0,2-5.15c.38-2.17.28-3.75-.29-4.77s-1.72-1.52-3.41-1.52A5,5,0,0,0,379.93,296.07Z"/><path class="cls-2" d="M428.64,307.93h12.57A15.46,15.46,0,0,1,435,315.6q-4.81,3.33-13.55,3.33h-.62q-8.86,0-12.51-5.26a15.22,15.22,0,0,1-2.59-11.58s0-.08,0-.1,0-.06,0-.11,0-.1,0-.17,0-.15,0-.24A21.8,21.8,0,0,1,412.52,290Q418,284.7,427,284.7q8,0,11.45,3.3a14.85,14.85,0,0,1,4.43,7.21,19.85,19.85,0,0,1,.47,4.37,22.71,22.71,0,0,1-.3,3.61l-.24,1.37H418.51a5.73,5.73,0,0,0,.94,4.4,5.09,5.09,0,0,0,3,1.86,3.06,3.06,0,0,0,.57.1,3.82,3.82,0,0,0,.57,0,6.07,6.07,0,0,0,3-.83,4.2,4.2,0,0,0,1.95-2.13Zm2.76-10.24q-.18-2.82-1.71-3.75A7,7,0,0,0,426,293a7.6,7.6,0,0,0-3.77.92,8,8,0,0,0-3,3.76Z"/><path class="cls-1" d="M513.6,273.63,521.72,318h-15l-.43-5.78h-14.5l-2.6,5.78H474.36l23.77-44.34Zm-8.71,29.49-1.7-14.5-6.89,14.5Z"/><path class="cls-1" d="M544.46,286.07l-3.34,19a3,3,0,0,0,.78,3,4.26,4.26,0,0,0,2.64,1H545a5.88,5.88,0,0,0,3-1,4.11,4.11,0,0,0,1.82-2.89l3.36-19h13.54L561,318H549l.76-4.33a11.84,11.84,0,0,1-4.61,4.09,16.13,16.13,0,0,1-5.54,1.61,3.23,3.23,0,0,1-.66.07h-1.21a12.38,12.38,0,0,1-7.84-3.09q-3.27-2.9-2.4-7.84l3.95-22.41Z"/><path class="cls-1" d="M610.12,273.15,602.22,318H590.6l.76-4.33a7.89,7.89,0,0,1-4.16,3.71,15.74,15.74,0,0,1-6.49,1.37c-.46,0-.92,0-1.37-.06s-.89-.12-1.33-.21a12,12,0,0,1-7.5-4.64q-3.1-3.88-1.72-11.72,1.51-8.59,5.94-12.65a17.35,17.35,0,0,1,9-4.74,6.47,6.47,0,0,1,1.17-.17c.39,0,.77,0,1.14,0a12.42,12.42,0,0,1,5.08,1,6.79,6.79,0,0,1,3.27,2.71l2.65-15.05ZM584.06,297a10.55,10.55,0,0,0-2.33,5,9.27,9.27,0,0,0,.36,5.15c.59,1.47,1.85,2.21,3.77,2.21a5.44,5.44,0,0,0,4.33-2.14,11,11,0,0,0,2.37-4.67c0-.09,0-.18.05-.28a2.56,2.56,0,0,1,0-.27c0-.14,0-.27.07-.41a2.43,2.43,0,0,0,0-.48,8,8,0,0,0-.79-4.33,3.59,3.59,0,0,0-3.53-2A5.53,5.53,0,0,0,584.06,297Z"/><path class="cls-1" d="M628.22,285.11,622.43,318H609.3l5.79-32.86Zm2.28-12.92-1.6,9.07H615.77l1.6-9.07Z"/><path class="cls-1" d="M653.19,284.63c.45,0,.89.08,1.32.1s.85.06,1.26.1a17.55,17.55,0,0,1,10.1,4.51q4.29,3.89,3.16,12.27l-.16.89q-1.49,8.46-7.42,12.44a24.54,24.54,0,0,1-12.25,4.4,4.76,4.76,0,0,1-.84.07h-2A18.79,18.79,0,0,1,635,315.05q-4.83-4-3.17-13.44,1.29-7.29,5.83-11a25.07,25.07,0,0,1,9.45-5.05,27.91,27.91,0,0,1,3.13-.62,23.53,23.53,0,0,1,2.93-.2Zm-5.55,11a12.67,12.67,0,0,0-2.39,3.95c-.1.33-.19.65-.27,1s-.15.64-.2,1-.14.93-.18,1.41a8.15,8.15,0,0,0,0,1.48,9.08,9.08,0,0,0,1.11,4.05,3.57,3.57,0,0,0,3.42,1.86,4.78,4.78,0,0,0,3.9-1.86,13.2,13.2,0,0,0,2.23-4.05,13.46,13.46,0,0,0,.43-1.48c.11-.48.2-.95.28-1.41s.1-.64.14-1,0-.64.06-1a7.9,7.9,0,0,0-.95-3.95,3.8,3.8,0,0,0-3.67-1.82A5,5,0,0,0,647.64,295.66Z"/><path class="cls-2" d="M731.49,300.58,744,273.63h17.87L754.06,318H740.52l3.07-17.39,2.64-9.56-12.45,27H723.13l-2.86-27.43-.81,10L716.39,318H702.85l7.82-44.34h17.87Z"/><path class="cls-2" d="M783.17,284.63c.45,0,.89.08,1.33.1s.84.06,1.25.1a17.52,17.52,0,0,1,10.1,4.51q4.3,3.89,3.16,12.27l-.15.89q-1.5,8.46-7.42,12.44a24.58,24.58,0,0,1-12.26,4.4,4.73,4.73,0,0,1-.83.07h-2A18.81,18.81,0,0,1,765,315.05q-4.83-4-3.16-13.44,1.27-7.29,5.82-11a25.07,25.07,0,0,1,9.45-5.05,27.63,27.63,0,0,1,3.14-.62,23.37,23.37,0,0,1,2.92-.2Zm-5.55,11a12.63,12.63,0,0,0-2.38,3.95c-.1.33-.2.65-.28,1s-.14.64-.2,1-.14.93-.18,1.41a8.17,8.17,0,0,0,0,1.48,9.2,9.2,0,0,0,1.1,4.05,3.59,3.59,0,0,0,3.42,1.86,4.75,4.75,0,0,0,3.9-1.86,13,13,0,0,0,2.23-4.05,13.46,13.46,0,0,0,.43-1.48c.11-.48.21-.95.29-1.41s.1-.64.13-1,.06-.64.07-1a8,8,0,0,0-.95-3.95,3.8,3.8,0,0,0-3.67-1.82A5,5,0,0,0,777.62,295.66Z"/><path class="cls-2" d="M844.25,273.15,836.34,318H824.73l.76-4.33a7.89,7.89,0,0,1-4.16,3.71,15.79,15.79,0,0,1-6.5,1.37c-.46,0-.91,0-1.36-.06s-.9-.12-1.34-.21a12,12,0,0,1-7.5-4.64c-2.06-2.59-2.64-6.5-1.71-11.72q1.51-8.59,5.94-12.65a17.29,17.29,0,0,1,9-4.74,6.74,6.74,0,0,1,1.17-.17c.39,0,.77,0,1.14,0a12.38,12.38,0,0,1,5.08,1,6.79,6.79,0,0,1,3.27,2.71l2.66-15.05ZM818.19,297a10.47,10.47,0,0,0-2.34,5,9.27,9.27,0,0,0,.36,5.15c.59,1.47,1.85,2.21,3.77,2.21a5.44,5.44,0,0,0,4.33-2.14,11,11,0,0,0,2.37-4.67,2.33,2.33,0,0,0,.05-.28c0-.09,0-.18,0-.27s.05-.27.07-.41a1.85,1.85,0,0,0,0-.48,7.93,7.93,0,0,0-.78-4.33,3.61,3.61,0,0,0-3.54-2A5.51,5.51,0,0,0,818.19,297Z"/><path class="cls-2" d="M867.67,307.93h12.58A15.54,15.54,0,0,1,874,315.6q-4.82,3.33-13.54,3.33h-.62q-8.87,0-12.51-5.26a15.22,15.22,0,0,1-2.6-11.58.56.56,0,0,1,0-.1.65.65,0,0,1,0-.11.67.67,0,0,1,0-.17c0-.07,0-.15,0-.24A21.67,21.67,0,0,1,851.56,290q5.49-5.26,14.43-5.26,8,0,11.45,3.3a14.78,14.78,0,0,1,4.43,7.21,19.26,19.26,0,0,1,.47,4.37,22.82,22.82,0,0,1-.29,3.61l-.24,1.37H857.54a5.77,5.77,0,0,0,.94,4.4,5.12,5.12,0,0,0,3,1.86,3.39,3.39,0,0,0,.57.1,3.86,3.86,0,0,0,.58,0,6.07,6.07,0,0,0,3-.83,4.22,4.22,0,0,0,2-2.13Zm2.77-10.24q-.2-2.82-1.71-3.75A7,7,0,0,0,865,293a7.6,7.6,0,0,0-3.77.92,7.91,7.91,0,0,0-3,3.76Z"/><path class="cls-2" d="M906.11,273.15,898.21,318H885.08l7.9-44.82Z"/><path class="cls-2" d="M60.41,198.57a64.87,64.87,0,0,1,62.14-64.73L154.23,0H61.87l-59,249.37h82.2A64.72,64.72,0,0,1,60.41,198.57Z"/><polygon class="cls-2" points="573.93 249.37 514.81 0 422.45 0 461.28 163.75 442.49 163.75 448.82 190.45 467.61 190.45 481.58 249.37 573.93 249.37"/><path class="cls-2" d="M857.08,0H810.91L742.8,81,674.69,0H582.33V249.37h92.36V54.93l45,53.55L721,110a22.52,22.52,0,0,1,43.57,0l1.31-1.56,45-53.55V249.37h92.35V0Z"/><circle class="cls-1" cx="125.21" cy="198.57" r="50.8" transform="translate(-90.86 290.35) rotate(-80.78)"/><path class="cls-2" d="M237.57,198.57a64.86,64.86,0,0,1,62.13-64.73L331.38,0H239L180,249.37h82.21A64.69,64.69,0,0,1,237.57,198.57Z"/><circle class="cls-1" cx="302.36" cy="198.57" r="50.8" transform="translate(57.92 465.22) rotate(-80.78)"/><polygon class="cls-1" points="360.16 249.37 452.51 249.37 406.33 54.6 360.16 249.37"/><path class="cls-1" d="M742.8,99.22a16.51,16.51,0,0,0-8.66,30.57v89.83a8.66,8.66,0,0,0,8.66,8.65h0a8.65,8.65,0,0,0,8.65-8.65V129.79a16.51,16.51,0,0,0-8.65-30.57Z"/><path class="cls-1" d="M716.44,127.79a8.65,8.65,0,0,0-8.65,8.65V196a8.66,8.66,0,0,0,17.31,0V136.44A8.66,8.66,0,0,0,716.44,127.79Z"/><path class="cls-1" d="M690.09,144.58a8.66,8.66,0,0,0-8.65,8.66V178a8.66,8.66,0,1,0,17.31,0V153.24A8.66,8.66,0,0,0,690.09,144.58Z"/><path class="cls-1" d="M769.15,143.32a8.66,8.66,0,0,0-8.66,8.65v39a8.66,8.66,0,0,0,17.31,0V152A8.65,8.65,0,0,0,769.15,143.32Z"/><path class="cls-1" d="M795.5,136.65a8.65,8.65,0,0,0-8.65,8.65V196a8.65,8.65,0,0,0,17.3,0V145.3A8.65,8.65,0,0,0,795.5,136.65Z"/></g></g></svg>